<mxfile host="Electron" modified="2023-04-24T08:17:18.375Z" agent="Mozilla/5.0 (Windows NT 10.0; Win64; x64) AppleWebKit/537.36 (KHTML, like Gecko) draw.io/21.1.2 Chrome/106.0.5249.199 Electron/21.4.3 Safari/537.36" etag="9-ueOzNrZ_-X8-T5yh6h" version="21.1.2" type="device">
  <diagram name="Page-1" id="AQW0QScOTGpidKISiW_X">
    <mxGraphModel dx="2071" dy="567" grid="1" gridSize="10" guides="1" tooltips="1" connect="1" arrows="1" fold="1" page="0" pageScale="1" pageWidth="850" pageHeight="1100" math="0" shadow="0">
      <root>
        <mxCell id="0" />
        <mxCell id="1" parent="0" />
        <mxCell id="PEBAgX2rUX8bZ40s61Im-2" style="edgeStyle=orthogonalEdgeStyle;rounded=0;orthogonalLoop=1;jettySize=auto;html=1;entryX=0.003;entryY=0.491;entryDx=0;entryDy=0;entryPerimeter=0;" parent="1" source="PD9g8nbdjSu6pzyZpRWR-1" target="PD9g8nbdjSu6pzyZpRWR-2" edge="1">
          <mxGeometry relative="1" as="geometry" />
        </mxCell>
        <mxCell id="PD9g8nbdjSu6pzyZpRWR-1" value="φαρμακοποιός" style="shape=umlActor;verticalLabelPosition=bottom;verticalAlign=top;html=1;fontSize=16;" parent="1" vertex="1">
          <mxGeometry x="-236" y="482" width="30" height="60" as="geometry" />
        </mxCell>
        <mxCell id="PD9g8nbdjSu6pzyZpRWR-2" value="κύρια οθόνη" style="shape=umlBoundary;whiteSpace=wrap;html=1;fontSize=16;" parent="1" vertex="1">
          <mxGeometry x="146" y="472" width="100" height="80" as="geometry" />
        </mxCell>
        <mxCell id="PD9g8nbdjSu6pzyZpRWR-4" value="Δημιουργία νέας προσφοράς" style="text;html=1;align=center;verticalAlign=middle;resizable=0;points=[];autosize=1;strokeColor=none;fillColor=none;fontSize=16;" parent="1" vertex="1">
          <mxGeometry x="-114" y="473" width="230" height="30" as="geometry" />
        </mxCell>
        <mxCell id="PD9g8nbdjSu6pzyZpRWR-5" value="Εμφάνισε" style="ellipse;shape=umlControl;whiteSpace=wrap;html=1;fontSize=16;" parent="1" vertex="1">
          <mxGeometry x="360" y="473" width="70" height="80" as="geometry" />
        </mxCell>
        <mxCell id="PD9g8nbdjSu6pzyZpRWR-6" value="" style="endArrow=classic;html=1;rounded=0;fontSize=12;startSize=8;endSize=8;curved=1;exitX=1.002;exitY=0.478;exitDx=0;exitDy=0;exitPerimeter=0;entryX=0.009;entryY=0.478;entryDx=0;entryDy=0;entryPerimeter=0;" parent="1" source="PD9g8nbdjSu6pzyZpRWR-2" target="PD9g8nbdjSu6pzyZpRWR-5" edge="1">
          <mxGeometry width="50" height="50" relative="1" as="geometry">
            <mxPoint x="272" y="713" as="sourcePoint" />
            <mxPoint x="322" y="663" as="targetPoint" />
          </mxGeometry>
        </mxCell>
        <mxCell id="PD9g8nbdjSu6pzyZpRWR-7" value="κατηγορίες προϊόντων" style="shape=umlBoundary;whiteSpace=wrap;html=1;fontSize=16;" parent="1" vertex="1">
          <mxGeometry x="146" y="630" width="100" height="80" as="geometry" />
        </mxCell>
        <mxCell id="PD9g8nbdjSu6pzyZpRWR-10" value="Επιλογή Κατηγορίας" style="text;html=1;align=center;verticalAlign=middle;resizable=0;points=[];autosize=1;strokeColor=none;fillColor=none;fontSize=16;rotation=15;" parent="1" vertex="1">
          <mxGeometry x="-79" y="570" width="170" height="30" as="geometry" />
        </mxCell>
        <mxCell id="PD9g8nbdjSu6pzyZpRWR-11" value="εμφάνισε" style="ellipse;shape=umlControl;whiteSpace=wrap;html=1;fontSize=16;" parent="1" vertex="1">
          <mxGeometry x="360" y="660" width="70" height="80" as="geometry" />
        </mxCell>
        <mxCell id="PD9g8nbdjSu6pzyZpRWR-12" value="" style="endArrow=classic;html=1;rounded=0;fontSize=12;startSize=8;endSize=8;curved=1;exitX=0.994;exitY=0.473;exitDx=0;exitDy=0;exitPerimeter=0;entryX=0.02;entryY=0.463;entryDx=0;entryDy=0;entryPerimeter=0;" parent="1" source="PD9g8nbdjSu6pzyZpRWR-7" target="PD9g8nbdjSu6pzyZpRWR-11" edge="1">
          <mxGeometry width="50" height="50" relative="1" as="geometry">
            <mxPoint x="392" y="713" as="sourcePoint" />
            <mxPoint x="442" y="663" as="targetPoint" />
          </mxGeometry>
        </mxCell>
        <mxCell id="PD9g8nbdjSu6pzyZpRWR-14" value="Προιόντα" style="shape=umlBoundary;whiteSpace=wrap;html=1;fontSize=16;" parent="1" vertex="1">
          <mxGeometry x="146" y="772" width="114" height="88" as="geometry" />
        </mxCell>
        <mxCell id="PD9g8nbdjSu6pzyZpRWR-17" value="επιλογή προϊόντος" style="text;html=1;align=center;verticalAlign=middle;resizable=0;points=[];autosize=1;strokeColor=none;fillColor=none;fontSize=16;rotation=30;" parent="1" vertex="1">
          <mxGeometry x="-59" y="670" width="150" height="31" as="geometry" />
        </mxCell>
        <mxCell id="PD9g8nbdjSu6pzyZpRWR-18" value="έλεγχος stock" style="ellipse;shape=umlControl;whiteSpace=wrap;html=1;fontSize=16;" parent="1" vertex="1">
          <mxGeometry x="396" y="772" width="70" height="80" as="geometry" />
        </mxCell>
        <mxCell id="PEBAgX2rUX8bZ40s61Im-12" style="edgeStyle=orthogonalEdgeStyle;rounded=0;orthogonalLoop=1;jettySize=auto;html=1;entryX=0.528;entryY=0.208;entryDx=0;entryDy=0;entryPerimeter=0;" parent="1" source="PD9g8nbdjSu6pzyZpRWR-19" target="PD9g8nbdjSu6pzyZpRWR-30" edge="1">
          <mxGeometry relative="1" as="geometry" />
        </mxCell>
        <mxCell id="PD9g8nbdjSu6pzyZpRWR-19" value="Δημιουργία προσφοράς ή Προσθήκη και άλλου προιόντος" style="shape=umlBoundary;whiteSpace=wrap;html=1;fontSize=16;" parent="1" vertex="1">
          <mxGeometry x="152" y="875" width="137" height="115" as="geometry" />
        </mxCell>
        <mxCell id="PD9g8nbdjSu6pzyZpRWR-20" value="" style="endArrow=classic;html=1;rounded=0;fontSize=12;startSize=8;endSize=8;curved=1;exitX=1.01;exitY=0.497;exitDx=0;exitDy=0;exitPerimeter=0;entryX=0.003;entryY=0.497;entryDx=0;entryDy=0;entryPerimeter=0;" parent="1" source="PD9g8nbdjSu6pzyZpRWR-14" target="PD9g8nbdjSu6pzyZpRWR-18" edge="1">
          <mxGeometry width="50" height="50" relative="1" as="geometry">
            <mxPoint x="458" y="1132" as="sourcePoint" />
            <mxPoint x="508" y="1082" as="targetPoint" />
          </mxGeometry>
        </mxCell>
        <mxCell id="FKHPkvyw20zkajTgQssY-1" style="edgeStyle=orthogonalEdgeStyle;rounded=0;orthogonalLoop=1;jettySize=auto;html=1;" edge="1" parent="1" source="PD9g8nbdjSu6pzyZpRWR-21" target="PD9g8nbdjSu6pzyZpRWR-19">
          <mxGeometry relative="1" as="geometry" />
        </mxCell>
        <mxCell id="PD9g8nbdjSu6pzyZpRWR-21" value="προσθήκη προϊοντος στην προσφορά" style="ellipse;shape=umlControl;whiteSpace=wrap;html=1;fontSize=16;" parent="1" vertex="1">
          <mxGeometry x="612" y="905" width="108" height="130" as="geometry" />
        </mxCell>
        <mxCell id="PD9g8nbdjSu6pzyZpRWR-22" value="" style="endArrow=classic;html=1;rounded=0;fontSize=12;startSize=8;endSize=8;curved=1;exitX=0.517;exitY=0.998;exitDx=0;exitDy=0;exitPerimeter=0;entryX=0.471;entryY=0.14;entryDx=0;entryDy=0;entryPerimeter=0;" parent="1" source="PD9g8nbdjSu6pzyZpRWR-18" target="PD9g8nbdjSu6pzyZpRWR-21" edge="1">
          <mxGeometry width="50" height="50" relative="1" as="geometry">
            <mxPoint x="458" y="1013" as="sourcePoint" />
            <mxPoint x="508" y="963" as="targetPoint" />
          </mxGeometry>
        </mxCell>
        <mxCell id="PD9g8nbdjSu6pzyZpRWR-23" value="in stock" style="text;html=1;align=center;verticalAlign=middle;resizable=0;points=[];autosize=1;strokeColor=none;fillColor=none;fontSize=16;" parent="1" vertex="1">
          <mxGeometry x="492" y="844" width="72" height="31" as="geometry" />
        </mxCell>
        <mxCell id="PD9g8nbdjSu6pzyZpRWR-27" value="" style="endArrow=classic;html=1;rounded=0;fontSize=12;startSize=8;endSize=8;curved=1;exitX=0.5;exitY=0.5;exitDx=0;exitDy=0;exitPerimeter=0;entryX=-0.009;entryY=0.53;entryDx=0;entryDy=0;entryPerimeter=0;" parent="1" source="PD9g8nbdjSu6pzyZpRWR-1" target="PD9g8nbdjSu6pzyZpRWR-19" edge="1">
          <mxGeometry width="50" height="50" relative="1" as="geometry">
            <mxPoint x="57" y="813" as="sourcePoint" />
            <mxPoint x="107" y="763" as="targetPoint" />
          </mxGeometry>
        </mxCell>
        <mxCell id="PD9g8nbdjSu6pzyZpRWR-28" value="επιλογή" style="text;html=1;align=center;verticalAlign=middle;resizable=0;points=[];autosize=1;strokeColor=none;fillColor=none;fontSize=16;rotation=45;" parent="1" vertex="1">
          <mxGeometry y="764" width="73" height="31" as="geometry" />
        </mxCell>
        <mxCell id="PD9g8nbdjSu6pzyZpRWR-29" value="δημιουργία προσφοράς" style="text;html=1;align=center;verticalAlign=middle;resizable=0;points=[];autosize=1;strokeColor=none;fillColor=none;fontSize=16;" parent="1" vertex="1">
          <mxGeometry x="220" y="990" width="185" height="31" as="geometry" />
        </mxCell>
        <mxCell id="PD9g8nbdjSu6pzyZpRWR-30" value="Υπολογισμός συνολικής αξίας των προιόντων" style="ellipse;shape=umlControl;whiteSpace=wrap;html=1;fontSize=16;" parent="1" vertex="1">
          <mxGeometry x="162" y="1020" width="117" height="149" as="geometry" />
        </mxCell>
        <mxCell id="PD9g8nbdjSu6pzyZpRWR-32" value="φόρμα καταχώρησης προσφοράς&amp;nbsp;" style="shape=umlBoundary;whiteSpace=wrap;html=1;fontSize=16;" parent="1" vertex="1">
          <mxGeometry x="170" y="1258" width="131" height="123" as="geometry" />
        </mxCell>
        <mxCell id="PD9g8nbdjSu6pzyZpRWR-34" value="συμπλήρωση και καταχώρηση" style="text;html=1;align=center;verticalAlign=middle;resizable=0;points=[];autosize=1;strokeColor=none;fillColor=none;fontSize=16;rotation=60;" parent="1" vertex="1">
          <mxGeometry x="-117" y="890" width="233" height="31" as="geometry" />
        </mxCell>
        <mxCell id="PD9g8nbdjSu6pzyZpRWR-35" value="καταχώρηση προσφοράς" style="ellipse;shape=umlControl;whiteSpace=wrap;html=1;fontSize=16;" parent="1" vertex="1">
          <mxGeometry x="420" y="1171.5" width="104" height="124" as="geometry" />
        </mxCell>
        <mxCell id="PD9g8nbdjSu6pzyZpRWR-36" value="" style="endArrow=classic;html=1;rounded=0;fontSize=12;startSize=8;endSize=8;curved=1;exitX=0.504;exitY=1.02;exitDx=0;exitDy=0;exitPerimeter=0;entryX=0.557;entryY=-0.021;entryDx=0;entryDy=0;entryPerimeter=0;" parent="1" source="PD9g8nbdjSu6pzyZpRWR-30" target="PD9g8nbdjSu6pzyZpRWR-32" edge="1">
          <mxGeometry width="50" height="50" relative="1" as="geometry">
            <mxPoint x="382" y="1503" as="sourcePoint" />
            <mxPoint x="432" y="1453" as="targetPoint" />
          </mxGeometry>
        </mxCell>
        <mxCell id="PD9g8nbdjSu6pzyZpRWR-37" value="" style="endArrow=classic;html=1;rounded=0;fontSize=12;startSize=8;endSize=8;curved=1;exitX=1.009;exitY=0.512;exitDx=0;exitDy=0;exitPerimeter=0;entryX=0.042;entryY=0.397;entryDx=0;entryDy=0;entryPerimeter=0;" parent="1" source="PD9g8nbdjSu6pzyZpRWR-32" target="PD9g8nbdjSu6pzyZpRWR-35" edge="1">
          <mxGeometry width="50" height="50" relative="1" as="geometry">
            <mxPoint x="382" y="1503" as="sourcePoint" />
            <mxPoint x="432" y="1453" as="targetPoint" />
          </mxGeometry>
        </mxCell>
        <mxCell id="PD9g8nbdjSu6pzyZpRWR-39" value="μη διαθέσιμο προϊόν" style="shape=umlBoundary;whiteSpace=wrap;html=1;fontSize=16;fillColor=#f8cecc;strokeColor=#b85450;" parent="1" vertex="1">
          <mxGeometry x="650" y="795" width="100" height="80" as="geometry" />
        </mxCell>
        <mxCell id="PD9g8nbdjSu6pzyZpRWR-40" value="" style="endArrow=classic;html=1;rounded=0;fontSize=12;startSize=8;endSize=8;curved=1;exitX=0.997;exitY=0.528;exitDx=0;exitDy=0;exitPerimeter=0;entryX=0.042;entryY=0.488;entryDx=0;entryDy=0;entryPerimeter=0;fillColor=#f8cecc;strokeColor=#b85450;" parent="1" source="PD9g8nbdjSu6pzyZpRWR-18" target="PD9g8nbdjSu6pzyZpRWR-39" edge="1">
          <mxGeometry width="50" height="50" relative="1" as="geometry">
            <mxPoint x="609" y="794" as="sourcePoint" />
            <mxPoint x="659" y="744" as="targetPoint" />
          </mxGeometry>
        </mxCell>
        <mxCell id="PD9g8nbdjSu6pzyZpRWR-41" value="out of stock" style="text;html=1;align=center;verticalAlign=middle;resizable=0;points=[];autosize=1;strokeColor=#b85450;fillColor=#f8cecc;fontSize=16;" parent="1" vertex="1">
          <mxGeometry x="511" y="764" width="100" height="31" as="geometry" />
        </mxCell>
        <mxCell id="PD9g8nbdjSu6pzyZpRWR-42" value="" style="endArrow=classic;html=1;rounded=0;fontSize=12;startSize=8;endSize=8;curved=1;exitX=0.374;exitY=0.028;exitDx=0;exitDy=0;exitPerimeter=0;fillColor=#f8cecc;strokeColor=#b85450;entryX=0.995;entryY=0.457;entryDx=0;entryDy=0;entryPerimeter=0;" parent="1" source="PD9g8nbdjSu6pzyZpRWR-39" target="PD9g8nbdjSu6pzyZpRWR-7" edge="1">
          <mxGeometry width="50" height="50" relative="1" as="geometry">
            <mxPoint x="555" y="794" as="sourcePoint" />
            <mxPoint x="346" y="724" as="targetPoint" />
            <Array as="points">
              <mxPoint x="746" y="483" />
            </Array>
          </mxGeometry>
        </mxCell>
        <mxCell id="PD9g8nbdjSu6pzyZpRWR-43" value="" style="endArrow=classic;html=1;rounded=0;fontSize=12;startSize=8;endSize=8;curved=1;exitX=0.991;exitY=0.602;exitDx=0;exitDy=0;exitPerimeter=0;entryX=0.948;entryY=0.255;entryDx=0;entryDy=0;entryPerimeter=0;fillColor=#dae8fc;strokeColor=#6c8ebf;" parent="1" source="PD9g8nbdjSu6pzyZpRWR-19" target="PD9g8nbdjSu6pzyZpRWR-7" edge="1">
          <mxGeometry width="50" height="50" relative="1" as="geometry">
            <mxPoint x="518" y="995" as="sourcePoint" />
            <mxPoint x="568" y="945" as="targetPoint" />
            <Array as="points">
              <mxPoint x="1022" y="1268" />
              <mxPoint x="735" y="382" />
            </Array>
          </mxGeometry>
        </mxCell>
        <mxCell id="PD9g8nbdjSu6pzyZpRWR-44" value="προσθήκη και άλλου προϊόντος" style="text;html=1;align=center;verticalAlign=middle;resizable=0;points=[];autosize=1;strokeColor=#6c8ebf;fillColor=#dae8fc;fontSize=16;" parent="1" vertex="1">
          <mxGeometry x="480" y="511" width="240" height="31" as="geometry" />
        </mxCell>
        <mxCell id="PEBAgX2rUX8bZ40s61Im-3" value="" style="endArrow=classic;html=1;rounded=0;entryX=-0.009;entryY=0.56;entryDx=0;entryDy=0;entryPerimeter=0;" parent="1" target="PD9g8nbdjSu6pzyZpRWR-7" edge="1">
          <mxGeometry width="50" height="50" relative="1" as="geometry">
            <mxPoint x="-200" y="520" as="sourcePoint" />
            <mxPoint x="630" y="690" as="targetPoint" />
          </mxGeometry>
        </mxCell>
        <mxCell id="PEBAgX2rUX8bZ40s61Im-5" value="" style="endArrow=classic;html=1;rounded=0;entryX=0.489;entryY=-0.043;entryDx=0;entryDy=0;entryPerimeter=0;exitX=0.023;exitY=0.773;exitDx=0;exitDy=0;exitPerimeter=0;" parent="1" source="PD9g8nbdjSu6pzyZpRWR-5" target="PD9g8nbdjSu6pzyZpRWR-7" edge="1">
          <mxGeometry width="50" height="50" relative="1" as="geometry">
            <mxPoint x="580" y="740" as="sourcePoint" />
            <mxPoint x="630" y="690" as="targetPoint" />
          </mxGeometry>
        </mxCell>
        <mxCell id="PEBAgX2rUX8bZ40s61Im-7" value="" style="endArrow=classic;html=1;rounded=0;entryX=0.015;entryY=0.565;entryDx=0;entryDy=0;entryPerimeter=0;" parent="1" target="PD9g8nbdjSu6pzyZpRWR-14" edge="1">
          <mxGeometry width="50" height="50" relative="1" as="geometry">
            <mxPoint x="-200" y="530" as="sourcePoint" />
            <mxPoint x="630" y="690" as="targetPoint" />
          </mxGeometry>
        </mxCell>
        <mxCell id="PEBAgX2rUX8bZ40s61Im-8" value="" style="endArrow=classic;html=1;rounded=0;entryX=0.859;entryY=0.086;entryDx=0;entryDy=0;entryPerimeter=0;exitX=0.039;exitY=0.759;exitDx=0;exitDy=0;exitPerimeter=0;" parent="1" source="PD9g8nbdjSu6pzyZpRWR-11" target="PD9g8nbdjSu6pzyZpRWR-14" edge="1">
          <mxGeometry width="50" height="50" relative="1" as="geometry">
            <mxPoint x="580" y="910" as="sourcePoint" />
            <mxPoint x="630" y="860" as="targetPoint" />
          </mxGeometry>
        </mxCell>
        <mxCell id="PEBAgX2rUX8bZ40s61Im-11" value="" style="endArrow=classic;html=1;rounded=0;entryX=0.002;entryY=0.508;entryDx=0;entryDy=0;entryPerimeter=0;" parent="1" target="PD9g8nbdjSu6pzyZpRWR-32" edge="1">
          <mxGeometry width="50" height="50" relative="1" as="geometry">
            <mxPoint x="-200" y="540" as="sourcePoint" />
            <mxPoint x="630" y="970" as="targetPoint" />
          </mxGeometry>
        </mxCell>
      </root>
    </mxGraphModel>
  </diagram>
</mxfile>
